<svg xmlns="http://www.w3.org/2000/svg" xmlns:xlink="http://www.w3.org/1999/xlink" width="322" height="368" viewBox="0 0 322 368">
  <defs>
    <linearGradient id="linear-gradient" x1="0.335" x2="0.5" y2="1" gradientUnits="objectBoundingBox">
      <stop offset="0" stop-color="#21d4fd"/>
      <stop offset="1" stop-color="#3453ff"/>
    </linearGradient>
    <clipPath id="clip-BFM_Icon">
      <rect width="322" height="368"/>
    </clipPath>
  </defs>
  <g id="BFM_Icon" data-name="BFM Icon" clip-path="url(#clip-BFM_Icon)">
    <path id="Subtraction_1" data-name="Subtraction 1" d="M446.008,8532.955a5.084,5.084,0,0,1-3.483-1.409,4.938,4.938,0,0,1-1.524-3.6V8394.98H502.12v36.033a4.936,4.936,0,0,0,1.524,3.6,5.081,5.081,0,0,0,3.484,1.41,4.931,4.931,0,0,0,2.476-.668l125.505-71.819a5,5,0,0,0,0-8.679L509.6,8283.037a4.938,4.938,0,0,0-2.476-.667,5.081,5.081,0,0,0-3.484,1.41,4.93,4.93,0,0,0-1.524,3.6V8322.8H441V8191.053a4.938,4.938,0,0,1,1.524-3.6,5.081,5.081,0,0,1,3.482-1.41,4.933,4.933,0,0,1,2.486.673L741.5,8355.164a5,5,0,0,1,0,8.67L448.493,8532.282A4.936,4.936,0,0,1,446.008,8532.955Z" transform="translate(-431.001 -8176.045)" fill="url(#linear-gradient)"/>
  </g>
</svg>
